{"title":"Sara Sloane aka Sarah Vandella - Bush Bangers 2","uid":10264685,"size":385462994,"categoryP":"porn","categoryS":"movie_clips","magnet":"?xt=urn:btih:d05bd0c737ec40c41f07863092c450db8d0dcfca&amp;dn=Sara+Sloane+aka+Sarah+Vandella+-+Bush+Bangers+2&amp;tr=udp%3A%2F%2Ftracker.openbittorrent.com%3A80&amp;tr=udp%3A%2F%2Fopen.demonii.com%3A1337&amp;tr=udp%3A%2F%2Ftracker.coppersurfer.tk%3A6969&amp;tr=udp%3A%2F%2Fexodus.desync.com%3A6969","seeders":0,"leechers":5,"uploader":"athklym","files":-1,"time":1401506211,"description":" &lt;a href=&quot;http://bayimg.com/oAOHAAAfh&quot; rel=&quot;nofollow&quot; target=&quot;_NEW&quot;&gt;http://bayimg.com/oAOHAAAfh&lt;/a&gt;\nSara_Sloane_aka_Sarah_Vandella_Bush_Bangers_2.mp4\nFormat                                   : MPEG-4\nCodec ID                                 : M4V \nFile size                                : 368 MiB\nDuration                                 : 22mn 18s\nOverall bit rate                         : 2 303 Kbps\n\nVideo\nID                                       : 1\nFormat                                   : AVC\nFormat/Info                              : Advanced Video Codec\nFormat profile                           : &lt;a class=&quot;__cf_email__&quot; href=&quot;/cdn-cgi/l/email-protection&quot; data-cfemail=&quot;96defff1fed6daa5b8a7&quot;&gt;[email&amp;#160;protected]&lt;/a&gt;&lt;script cf-hash='f9e31' type=&quot;text/javascript&quot;&gt;\n/* &lt;![CDATA[ */!function(){try{var t=&quot;currentScript&quot;in document?document.currentScript:function(){for(var t=document.getElementsByTagName(&quot;script&quot;),e=t.length;e--;)if(t[e].getAttribute(&quot;cf-hash&quot;))return t[e]}();if(t&amp;&amp;t.previousSibling){var e,r,n,i,c=t.previousSibling,a=c.getAttribute(&quot;data-cfemail&quot;);if(a){for(e=&quot;&quot;,r=parseInt(a.substr(0,2),16),n=2;a.length-n;n+=2)i=parseInt(a.substr(n,2),16)^r,e+=String.fromCharCode(i);e=document.createTextNode(e),c.parentNode.replaceChild(e,c)}}}catch(u){}}();/* ]]&gt; */&lt;/script&gt;\nFormat settings, CABAC                   : Yes\nFormat settings, ReFrames                : 5 frames\nCodec ID                                 : avc1\nCodec ID/Info                            : Advanced Video Coding\nDuration                                 : 22mn 18s\nBit rate                                 : 2 175 Kbps\nMaximum bit rate                         : 5 981 Kbps\nWidth                                    : 720 pixels\nHeight                                   : 392 pixels\nDisplay aspect ratio                     : 1.85:1\nFrame rate mode                          : Variable\nFrame rate                               : 29.970 fps\nMinimum frame rate                       : 29.412 fps\nMaximum frame rate                       : 30.426 fps\nColor space                              : YUV\nChroma subsampling                       : 4:2:0\nBit depth                                : 8 bits\nScan type                                : Progressive\nBits/(Pixel*Frame)                       : 0.257\nStream size                              : 347 MiB (94%)\n\nAudio\nID                                       : 2\nFormat                                   : AAC\nFormat/Info                              : Advanced Audio Codec\nFormat profile                           : LC\nCodec ID                                 : 40\nDuration                                 : 22mn 18s\nBit rate mode                            : Constant\nBit rate                                 : 122 Kbps\nChannel(s)                               : 2 channels\nChannel positions                        : Front: L R\nSampling rate                            : 48.0 KHz\nCompression mode                         : Lossy\nStream size                              : 19.6 MiB (5%)\nmdhd_Duration                            : 1338709\n\n","torrent":{"xt":"urn:btih:d05bd0c737ec40c41f07863092c450db8d0dcfca","amp;dn":"Sara+Sloane+aka+Sarah+Vandella+-+Bush+Bangers+2","amp;tr":["udp%3A%2F%2Ftracker.openbittorrent.com%3A80","udp%3A%2F%2Fopen.demonii.com%3A1337","udp%3A%2F%2Ftracker.coppersurfer.tk%3A6969","udp%3A%2F%2Fexodus.desync.com%3A6969"],"infoHash":"d05bd0c737ec40c41f07863092c450db8d0dcfca","infoHashBuffer":{"type":"Buffer","data":[208,91,208,199,55,236,64,196,31,7,134,48,146,196,80,219,141,13,207,202]},"announce":[],"urlList":[]}}